# xmcd
#
# Track frame offsets: 
#        150
#        19215
#        40605
#        61856
#        83801
#        115762
#        134820
#        161272
#        191214
#        208620
#        222828
#        235877
#        262997
#        288175
#        307112
#
# Disc length: 4405 seconds
#
# Revision: 1
# Processed by: cddbd v1.5.2PL0 Copyright (c) Steve Scherf et al.
# Submitted via: ExactAudioCopy v0.99pb4
#
DISCID=d411330f
DTITLE=Chet Baker - Tenderly
DYEAR=1955
DGENRE=Jazz
TTITLE0=Sad Walk
TTITLE1=Tasty Pudding
TTITLE2=These Foolish Things
TTITLE3=Lover Man
TTITLE4=Autumn In New York
TTITLE5=Summertime
TTITLE6=You Go To My Head
TTITLE7=Tenderly
TTITLE8=Alone Together
TTITLE9=Chet
TTITLE10=Vline
TTITLE11=Chik-Eta
TTITLE12=Once in a While
TTITLE13=Just Duo
TTITLE14=Piece Caprice
EXTD=YEAR: 1955
EXTT0=
EXTT1=
EXTT2=
EXTT3=
EXTT4=
EXTT5=
EXTT6=
EXTT7=
EXTT8=
EXTT9=
EXTT10=
EXTT11=
EXTT12=
EXTT13=
EXTT14=
PLAYORDER=
